# xmcd
#
# Track frame offsets:
#	150
#	20883
#	38757
#	60721
#	75601
#	91421
#	107224
#	126818
#	145266
#	161826
#	179304
#	197147
#	212296
#	236493
#
# Disc length: 3379 seconds
#
# Revision: 2
# Processed by: cddbd v1.5.2PL0 Copyright (c) Steve Scherf et al.
# Submitted via: audiograbber 1.83.01
#
DISCID=c00d310e
DTITLE=Válogatás - Jackpot 2000 - Pop
DYEAR=1999
DGENRE=Pop
TTITLE0=Charlie - Jég dupla whiskyvel
TTITLE1=Presser Gábor - A szerelem jó, a szerelem fáj
TTITLE2=Republic - 67-es út
TTITLE3=Pa-Dö-Dö - Te vagy a legjobb dolog a héten
TTITLE4=Zámbó Jimmy - Még nem veszithetek
TTITLE5=Fenyö Miklós - Napfény a jégen
TTITLE6=Pataky Attila and Mester Tamás - Hazatérsz
TTITLE7=Emberek - Száz út
TTITLE8=Cserháti Zsuzsa - Akad, amit nem gyógyit meg az idö sem
TTITLE9=Denjén Ferenc - Kell még egy szó
TTITLE10=Gergely Róbert - Azok a fehér éjszakák
TTITLE11=Friderika - Kinek mondjam el vétkeimet
TTITLE12=Császár Elöd - Tiltott szerelem
TTITLE13=Ákos - Minden ami szép volt
EXTD=Az ezredvég dalai
EXTT0=
EXTT1=
EXTT2=
EXTT3=
EXTT4=
EXTT5=
EXTT6=
EXTT7=
EXTT8=
EXTT9=
EXTT10=
EXTT11=
EXTT12=
EXTT13=
PLAYORDER=
